<?xml version="1.0" standalone="no"?>
<!DOCTYPE svg PUBLIC "-//W3C//DTD SVG 20010904//EN"
 "http://www.w3.org/TR/2001/REC-SVG-20010904/DTD/svg10.dtd">
<svg version="1.0" xmlns="http://www.w3.org/2000/svg"
 width="1024.000000pt" height="1024.000000pt" viewBox="0 0 1024.000000 1024.000000"
 preserveAspectRatio="xMidYMid meet">

<g transform="translate(0.000000,1024.000000) scale(0.100000,-0.100000)"
fill="#000000" stroke="none">
<path d="M2500 8715 c-238 -52 -424 -194 -525 -399 -73 -148 -75 -168 -75
-734 l-1 -497 -82 -40 c-66 -31 -100 -57 -173 -130 -96 -95 -144 -168 -186
-285 l-23 -65 -3 -2005 c-2 -1809 -1 -2013 14 -2085 51 -256 234 -478 474
-573 137 -54 36 -52 2221 -52 1968 0 2021 0 2057 19 62 31 82 90 54 154 -25
57 -172 275 -207 307 l-27 25 -1922 5 -1921 5 -68 33 c-82 41 -129 98 -157
191 -20 65 -20 93 -18 1931 3 1760 4 1868 21 1911 25 65 73 118 131 145 l51
24 2270 0 2270 0 50 -24 c94 -43 127 -100 179 -306 20 -80 48 -164 62 -188 38
-64 97 -117 172 -154 l67 -33 420 -5 c475 -6 472 -5 522 -81 27 -42 28 -45 27
-183 0 -78 -6 -258 -12 -401 -45 -973 -51 -1113 -59 -1362 l-6 -222 32 -65
c47 -96 129 -154 230 -163 105 -10 180 28 223 111 20 38 23 70 39 476 10 239
22 539 28 665 37 788 52 1209 48 1275 -9 129 -57 231 -154 324 -58 57 -117 93
-192 119 -51 17 -93 19 -452 22 -218 1 -407 6 -420 10 -31 9 -77 52 -96 89 -9
17 -26 70 -39 119 -63 233 -219 395 -449 464 -57 17 -180 18 -2268 21 -2166 2
-2208 3 -2215 22 -4 10 -5 218 -2 462 l5 443 28 48 c16 26 47 61 70 78 84 61
67 60 928 57 l784 -3 54 -30 c64 -35 122 -99 144 -157 9 -24 35 -117 57 -208
25 -99 54 -188 72 -222 44 -83 119 -154 205 -195 62 -30 88 -36 180 -44 60 -4
644 -8 1298 -8 745 -1 1202 -4 1223 -10 95 -28 171 -105 191 -192 6 -24 11
-104 11 -177 0 -128 1 -134 25 -157 24 -25 25 -25 230 -25 275 0 255 -19 255
245 0 241 -13 314 -77 443 -83 168 -228 296 -408 359 l-80 28 -1260 5 c-970 4
-1265 8 -1281 17 -58 33 -87 92 -123 248 -62 272 -249 473 -526 566 l-70 24
-890 2 c-735 1 -901 -1 -955 -12z"/>
<path d="M2394 6246 c-17 -8 -45 -31 -62 -52 -57 -68 -40 -167 35 -219 l38
-25 418 0 c399 0 420 1 457 20 110 56 100 227 -17 275 -50 21 -821 22 -869 1z"/>
<path d="M5300 6124 c-180 -21 -353 -60 -470 -105 -111 -42 -289 -141 -390
-215 -129 -95 -184 -146 -278 -259 -186 -222 -302 -460 -363 -746 -33 -151
-33 -457 0 -608 33 -157 74 -272 145 -416 86 -174 167 -286 311 -430 227 -227
480 -366 805 -442 147 -34 406 -43 570 -19 265 39 481 121 689 261 l84 56 61
-58 c33 -32 76 -75 95 -96 l34 -38 -20 -27 c-121 -164 -127 -410 -13 -579 23
-35 166 -182 352 -364 172 -167 376 -366 453 -441 173 -169 200 -190 300 -238
124 -60 274 -82 415 -60 319 51 569 276 652 589 40 151 25 364 -35 500 -42 95
-103 164 -423 476 -581 566 -608 591 -687 630 -106 51 -186 69 -282 62 -113
-9 -192 -37 -302 -107 -21 -13 -27 -9 -110 73 l-88 87 28 47 c97 165 172 359
209 546 32 159 32 435 0 585 -75 348 -235 638 -485 879 -229 220 -521 371
-837 432 -101 19 -345 34 -420 25z m399 -558 c210 -59 368 -152 526 -311 192
-192 296 -425 311 -690 18 -315 -86 -596 -308 -830 -92 -97 -194 -170 -321
-230 -164 -77 -270 -103 -448 -112 -561 -28 -1047 362 -1144 916 -17 97 -19
268 -4 361 71 446 430 816 884 911 135 28 374 21 504 -15z m1738 -2611 c43
-26 276 -247 620 -590 152 -151 174 -188 174 -290 0 -186 -166 -300 -346 -238
-51 17 -54 20 -465 418 -370 358 -365 351 -365 475 0 83 15 121 69 178 56 61
115 83 203 78 45 -3 75 -11 110 -31z"/>
<path d="M5955 4975 c-22 -8 -41 -15 -42 -15 -1 0 -11 -15 -22 -34 -32 -52
-27 -97 20 -177 23 -38 47 -86 55 -107 20 -57 18 -188 -6 -258 -34 -103 -25
-162 34 -202 65 -44 148 -17 193 63 31 56 63 199 63 286 0 136 -58 299 -140
391 -37 42 -51 51 -100 63 -8 2 -33 -2 -55 -10z"/>
</g>
</svg>
